<?xml version="1.0" standalone="no"?>
<!DOCTYPE svg PUBLIC "-//W3C//DTD SVG 20010904//EN"
 "http://www.w3.org/TR/2001/REC-SVG-20010904/DTD/svg10.dtd">
<svg version="1.0" xmlns="http://www.w3.org/2000/svg"
 width="512.000000pt" height="512.000000pt" viewBox="0 0 512.000000 512.000000"
 preserveAspectRatio="xMidYMid meet">
<metadata>
Created by potrace 1.11, written by Peter Selinger 2001-2013
</metadata>
<g transform="translate(0.000000,512.000000) scale(0.100000,-0.100000)"
fill="#000000" stroke="none">
<path d="M2453 4941 c-5 -3 -9 -59 -8 -124 0 -66 -3 -121 -9 -124 -5 -3 -85
-6 -178 -5 l-168 2 -1 -43 c-1 -47 -1 -154 0 -177 1 -13 27 -15 178 -15 l178
0 0 -179 c0 -105 -4 -184 -10 -191 -5 -6 -46 -41 -90 -76 -43 -35 -91 -74
-105 -85 -28 -25 -298 -247 -411 -340 -242 -199 -315 -258 -319 -263 -3 -4
-21 -18 -40 -33 -19 -15 -47 -37 -62 -50 -14 -13 -35 -30 -45 -38 -23 -19
-121 -99 -148 -122 -11 -9 -130 -107 -265 -218 -135 -111 -256 -212 -270 -223
-14 -12 -48 -40 -75 -62 -28 -21 -52 -42 -55 -45 -3 -3 -24 -20 -47 -39 -48
-37 -50 -43 -25 -69 9 -10 44 -51 77 -92 61 -76 84 -104 126 -152 l24 -27 116
97 c63 53 291 241 505 417 214 176 398 327 409 337 11 9 106 87 210 173 105
86 208 171 230 189 137 115 181 151 278 229 l107 88 48 -38 c26 -21 49 -40 52
-43 3 -3 41 -35 85 -70 44 -36 82 -67 85 -70 3 -3 68 -57 145 -120 141 -115
249 -205 295 -244 14 -12 72 -60 130 -106 58 -47 107 -87 110 -90 3 -3 95 -80
205 -170 110 -91 227 -187 260 -215 33 -27 81 -66 105 -87 25 -20 110 -90 190
-157 l145 -120 28 32 c16 18 72 85 125 151 l96 118 -29 25 c-45 38 -55 46
-265 217 -107 88 -197 163 -200 166 -3 3 -41 35 -85 70 -44 36 -91 75 -105 86
-35 31 -921 760 -1120 922 -91 74 -170 140 -175 147 -8 9 -13 333 -6 366 0 3
76 5 167 4 91 0 170 3 176 6 8 5 15 155 9 215 -1 8 -54 11 -172 12 -94 0 -174
3 -177 7 -4 4 -7 59 -8 123 -1 64 -2 119 -3 122 -2 8 -207 9 -218 1z"/>
<path d="M2494 3393 c-33 -27 -70 -58 -84 -70 -14 -12 -79 -66 -145 -120 -258
-214 -672 -557 -715 -593 -63 -53 -358 -298 -408 -339 l-42 -34 0 -1028 0
-1029 480 0 480 0 0 468 c0 507 1 520 57 630 34 68 130 168 195 204 151 83
345 83 498 -1 62 -34 160 -136 192 -202 21 -42 59 -152 58 -166 0 -2 0 -212 0
-468 l0 -465 480 0 480 0 0 1029 0 1029 -47 38 c-27 21 -59 48 -73 60 -14 12
-160 133 -325 270 -165 137 -302 251 -305 254 -3 3 -41 34 -85 70 -44 35 -85
69 -91 75 -7 5 -20 17 -30 25 -11 8 -59 49 -109 90 -49 41 -99 82 -110 92 -11
9 -77 64 -148 122 -70 58 -131 106 -136 106 -5 0 -35 -21 -67 -47z"/>
<path d="M825 1652 c-531 -308 -753 -437 -770 -446 -59 -32 -55 7 -55 -535 l0
-497 467 1 468 0 0 768 c0 422 -2 767 -5 767 -3 0 -50 -27 -105 -58z"/>
<path d="M4188 1703 c-4 -7 -3 -1490 1 -1519 1 -7 147 -10 464 -10 l462 1 2
500 3 500 -356 205 c-196 113 -372 214 -393 225 -20 11 -53 30 -73 43 -21 12
-53 31 -72 42 -19 12 -36 17 -38 13z"/>
</g>
</svg>
